<svg width="82" height="132" viewBox="0 0 82 132" xmlns="http://www.w3.org/2000/svg">
  <ellipse cx="41" cy="67" rx="37" ry="59" fill="#111827" opacity=".35"/>
  <rect x="8" y="6" width="66" height="120" rx="22" fill="#e7edf2" stroke="#172033" stroke-width="5"/>
  <path d="M19 36 27 20h28l8 16-6 13H25z" fill="#8dd7e8" stroke="#172033" stroke-width="4"/>
  <path d="M25 85h32l6 18H19z" fill="#8dd7e8" stroke="#172033" stroke-width="4"/>
  <rect x="9" y="55" width="64" height="27" fill="#234d7d"/>
  <rect x="22" y="59" width="18" height="8" rx="3" fill="#ef4444"/><rect x="42" y="59" width="18" height="8" rx="3" fill="#3b82f6"/>
  <rect x="1" y="25" width="9" height="25" rx="3" fill="#172033"/><rect x="72" y="25" width="9" height="25" rx="3" fill="#172033"/>
  <rect x="1" y="84" width="9" height="25" rx="3" fill="#172033"/><rect x="72" y="84" width="9" height="25" rx="3" fill="#172033"/>
</svg>

